<svg xmlns="http://www.w3.org/2000/svg" viewBox="0 0 640 512"><!--!Font Awesome Pro 6.5.2 by @fontawesome - https://fontawesome.com License - https://fontawesome.com/license (Commercial License) Copyright 2024 Fonticons, Inc.--><path d="M168.7 192c11 0 18.6-10.8 14.9-21.2-4.9-13.6-7.6-28-7.6-42.8s2.6-29.2 7.6-42.8C187.3 74.8 179.7 64 168.7 64h-17.7c-7 0-13.5 4.5-15.4 11.2C130.6 92.2 128 109.9 128 128c0 18.1 2.6 35.8 7.5 52.8 1.9 6.7 8.4 11.2 15.4 11.2h17.7zm-120.8-64c0-37.8 9.5-73.4 26.1-104.7C79.6 12.7 72 0 60 0H40.6c-6.3 0-12.1 3.6-14.7 9.3C8.2 48.1-1.3 91.4 .2 137.1c1.2 38.9 10.8 75.9 26.5 109.7 2.6 5.6 8.4 9.1 14.6 9.1h18.9c12 0 19.6-12.7 13.9-23.4C57.4 201.4 47.9 165.8 47.9 128zM614.1 9.3C611.5 3.6 605.6 0 599.3 0h-19.4c-12 0-19.7 12.7-14 23.3 23.3 43.7 32.6 95.8 21.5 150.7-4.2 20.7-11.5 40.4-21.3 58.6-5.7 10.7 1.8 23.5 13.9 23.5h19.2c6.3 0 12.1-3.6 14.7-9.3C630.6 210.5 640 170.4 640 128s-9.4-82.5-25.9-118.7zM489.1 64h-17.7c-11 0-18.6 10.8-14.9 21.2 4.9 13.6 7.6 28 7.6 42.8s-2.6 29.2-7.6 42.8c-3.8 10.4 3.9 21.2 14.9 21.2h17.7c7 0 13.5-4.5 15.4-11.2 4.9-17 7.5-34.6 7.5-52.8 0-18.1-2.6-35.8-7.5-52.8-1.9-6.8-8.4-11.2-15.4-11.2zM372.7 187.8C389.3 173.1 400 151.9 400 128c0-44.2-35.8-80-80-80-5.5 0-10.9 .6-16.1 1.6a79.5 79.5 0 0 0 -28.6 12c-21.3 14.4-35.3 38.7-35.3 66.3 0 23.9 10.8 44.9 27.4 59.5L144 483.7c-3.4 8.2 .5 17.5 8.6 20.9l14.8 6.2c8.2 3.4 17.5-.5 20.9-8.6L245.3 368h149.5l57 134.2c3.4 8.2 12.8 12 20.9 8.6l14.8-6.2c8.2-3.4 12-12.8 8.6-20.9L372.7 187.8zM320 96c17.7 0 32 14.4 32 32s-14.4 32-32 32-32-14.4-32-32 14.4-32 32-32zm-54.4 224l47.8-112.7c2.2 .2 4.3 .7 6.5 .7 2.2 0 4.3-.5 6.5-.7L374.4 320h-108.7z"/></svg>